<svg width="21" height="21" xmlns="http://www.w3.org/2000/svg" xmlns:svg="http://www.w3.org/2000/svg">
    <defs>
        <linearGradient id="08452312981939414" y2="99.7136364%" x2="49.2755102%" y1="1.13636364%" x1="49.2755102%">
            <stop offset="0%" stop-color="#CDBD8F" />
            <stop offset="18.14%" stop-color="#CAB683" />
            <stop offset="43.6%" stop-color="#C5A76B" />
            <stop offset="76.04%" stop-color="#9B7F48" />
            <stop offset="100%" stop-color="#7A5F2C" />
        </linearGradient>
    </defs>
        <path id="svg_1" fill="url(#08452312981939414)" d="m10.833,0.639c4.577,0 8.037,5.838 4.267,10.599c0.983,0.381 2.109,1.027 3.099,2.067c1.444,1.516 2.551,3.817 2.551,7.195l-1.5,0c0,-3.021 -0.977,-4.943 -2.137,-6.16c-1.176,-1.235 -2.591,-1.797 -3.52,-1.995l-1.375,-0.293l1.009,-0.979l0.001,0c4.124,-3.999 1.065,-8.934 -2.395,-8.934l0,-1.5zm-1.666,-0.139l0,19.556l-9.167,0c0,-6.4 4.167,-8.889 6.25,-9.333l0,-0.001c-4.583,-4.444 -1.25,-10.222 2.917,-10.222z" />
</svg>